<svg fill="none" height="100" viewBox="0 0 400 100" width="400" xmlns="http://www.w3.org/2000/svg" xmlns:xlink="http://www.w3.org/1999/xlink"><clipPath id="a"><path d="m0 0h400v100h-400z"/></clipPath><g clip-path="url(#a)" opacity=".9"><rect height="99" opacity=".5" rx="3.5" stroke="#c5c5d2" width="399" x=".5" y=".5"/><path d="m204 8h188v38h-188z" fill="#edeef1"/><g fill="#fff" stroke="#c5c5d2"><path d="m8.5 8.5h187v37h-187z" opacity=".5"/><path d="m204.5 54.5h187v37h-187z" opacity=".5"/><path d="m8.5 54.5h187v37h-187z" opacity=".5"/></g><g fill="#191927"><path d="m292.84 32.1838c1.982 0 3.465-1.0632 3.465-2.7563 0-1.1944-.774-1.9556-1.956-2.2706l-2.625-.6957c-.735-.1968-1.063-.6037-1.063-1.3125 0-1.0237.84-1.575 2.061-1.575 1.352 0 2.113.7219 2.113 1.7325v.1969h1.116v-.2231c0-1.575-1.313-2.6513-3.229-2.6513-1.93 0-3.229.9713-3.229 2.6119 0 1.1288.538 1.8769 1.877 2.2181l2.559.6694c.801.21 1.208.6956 1.208 1.3913 0 1.1025-.866 1.7193-2.284 1.7193-1.457 0-2.336-.7481-2.336-1.8375v-.21h-1.142v.2363c0 1.7063 1.457 2.7563 3.465 2.7563zm5.386-.1838h1.142v-6.8644l2.349 4.6463h1.129l2.349-4.6463v6.8644h1.142v-9.1875h-1.116l-2.94 5.88-2.94-5.88h-1.115z"/><path d="m96.84 32.1838c1.9819 0 3.465-1.0632 3.465-2.7563 0-1.1944-.7744-1.9556-1.9556-2.2706l-2.625-.6957c-.735-.1968-1.0632-.6037-1.0632-1.3125 0-1.0237.84-1.575 2.0607-1.575 1.3518 0 2.1131.7219 2.1131 1.7325v.1969h1.1156v-.2231c0-1.575-1.3125-2.6513-3.2287-2.6513-1.9294 0-3.2288.9713-3.2288 2.6119 0 1.1288.5381 1.8769 1.8769 2.2181l2.5594.6694c.8006.21 1.2075.6956 1.2075 1.3913 0 1.1025-.8663 1.7193-2.2838 1.7193-1.4569 0-2.3362-.7481-2.3362-1.8375v-.21h-1.1419v.2363c0 1.7063 1.4569 2.7563 3.465 2.7563zm5.386-.1838h1.142v-6.8644l2.349 4.6463h1.129l2.349-4.6463v6.8644h1.142v-9.1875h-1.116l-2.94 5.88-2.94-5.88h-1.115z"/><path d="m292.84 78.1838c1.982 0 3.465-1.0632 3.465-2.7563 0-1.1944-.774-1.9556-1.956-2.2706l-2.625-.6957c-.735-.1968-1.063-.6037-1.063-1.3125 0-1.0237.84-1.575 2.061-1.575 1.352 0 2.113.7219 2.113 1.7325v.1969h1.116v-.2231c0-1.575-1.313-2.6513-3.229-2.6513-1.93 0-3.229.9713-3.229 2.6119 0 1.1288.538 1.8769 1.877 2.2181l2.559.6694c.801.21 1.208.6956 1.208 1.3913 0 1.1025-.866 1.7193-2.284 1.7193-1.457 0-2.336-.7481-2.336-1.8375v-.21h-1.142v.2363c0 1.7063 1.457 2.7563 3.465 2.7563zm5.386-.1838h1.142v-6.8644l2.349 4.6463h1.129l2.349-4.6463v6.8644h1.142v-9.1875h-1.116l-2.94 5.88-2.94-5.88h-1.115z"/><path d="m96.84 78.1838c1.9819 0 3.465-1.0632 3.465-2.7563 0-1.1944-.7744-1.9556-1.9556-2.2706l-2.625-.6957c-.735-.1968-1.0632-.6037-1.0632-1.3125 0-1.0237.84-1.575 2.0607-1.575 1.3518 0 2.1131.7219 2.1131 1.7325v.1969h1.1156v-.2231c0-1.575-1.3125-2.6513-3.2287-2.6513-1.9294 0-3.2288.9713-3.2288 2.6119 0 1.1288.5381 1.8769 1.8769 2.2181l2.5594.6694c.8006.21 1.2075.6956 1.2075 1.3913 0 1.1025-.8663 1.7193-2.2838 1.7193-1.4569 0-2.3362-.7481-2.3362-1.8375v-.21h-1.1419v.2363c0 1.7063 1.4569 2.7563 3.465 2.7563zm5.386-.1838h1.142v-6.8644l2.349 4.6463h1.129l2.349-4.6463v6.8644h1.142v-9.1875h-1.116l-2.94 5.88-2.94-5.88h-1.115z"/></g></g></svg>